<svg width="257" height="257" viewBox="0 0 257 257" fill="none" xmlns="http://www.w3.org/2000/svg">
<path d="M0 111.019C0 71.7492 0 52.1144 7.76351 37.169C14.3057 24.5747 24.5747 14.3057 37.169 7.76351C52.1144 0 71.7492 0 111.019 0H145.037C184.307 0 203.942 0 218.887 7.76351C231.481 14.3057 241.75 24.5747 248.292 37.169C256.056 52.1144 256.056 71.7492 256.056 111.019V145.037C256.056 184.307 256.056 203.942 248.292 218.887C241.75 231.481 231.481 241.75 218.887 248.292C203.942 256.056 184.307 256.056 145.037 256.056H111.019C71.7492 256.056 52.1144 256.056 37.169 248.292C24.5747 241.75 14.3057 231.481 7.76351 218.887C0 203.942 0 184.307 0 145.037V111.019Z" fill="url(#paint0_linear_3_24131)"/>
<path d="M215.221 72.1448C220.971 147.921 170.916 183.74 126.04 187.557C84.3213 191.112 45.0506 166.168 41.605 127.839C38.7646 96.1749 58.8745 82.6881 74.679 81.347C90.9306 79.9577 104.589 90.8655 105.772 104.07C106.914 116.766 98.771 122.543 93.1108 123.025C88.6335 123.41 83.0008 120.762 82.4919 115.081C82.0586 110.198 83.9637 109.538 83.496 104.352C82.6707 95.1227 74.397 94.0498 69.8716 94.428C64.3902 94.8957 54.4453 101.12 55.8415 116.622C57.2445 132.261 72.6502 144.613 92.8495 142.894C114.644 141.044 129.823 124.524 130.965 101.361C130.951 100.136 131.219 98.9191 131.742 97.8049V97.7774C131.983 97.2891 132.258 96.8283 132.567 96.3812C133.035 95.7004 133.626 94.9507 134.397 94.1323C134.397 94.1323 134.404 94.1254 134.417 94.1117C134.974 93.4996 135.655 92.8324 136.419 92.1172C145.937 83.3758 180.229 62.757 212.663 69.2838C213.351 69.4282 213.97 69.779 214.43 70.2948C214.891 70.8106 215.166 71.4502 215.221 72.1311V72.1448Z" fill="white"/>
<defs>
<linearGradient id="paint0_linear_3_24131" x1="229.646" y1="61.0912" x2="11.308" y2="148.578" gradientUnits="userSpaceOnUse">
<stop stop-color="#0CC5FF"/>
<stop offset="1" stop-color="#007FFF"/>
</linearGradient>
</defs>
</svg>
